<?xml version="1.0" encoding="UTF-8" standalone="no"?>
<svg
   xmlns:dc="http://purl.org/dc/elements/1.1/"
   xmlns:cc="http://creativecommons.org/ns#"
   xmlns:rdf="http://www.w3.org/1999/02/22-rdf-syntax-ns#"
   xmlns:svg="http://www.w3.org/2000/svg"
   xmlns="http://www.w3.org/2000/svg"
   xmlns:sodipodi="http://sodipodi.sourceforge.net/DTD/sodipodi-0.dtd"
   xmlns:inkscape="http://www.inkscape.org/namespaces/inkscape"
   width="61.6"
   height="36"
   viewBox="0 0 61.6 36"
   id="svg2"
   version="1.1"
   inkscape:version="0.48.3.1 r9886"
   sodipodi:docname="logo_bak.svg">
  <metadata
     id="metadata10">
    <rdf:RDF>
      <cc:Work
         rdf:about="">
        <dc:format>image/svg+xml</dc:format>
        <dc:type
           rdf:resource="http://purl.org/dc/dcmitype/StillImage" />
        <dc:title />
      </cc:Work>
    </rdf:RDF>
  </metadata>
  <defs
     id="defs8" />
  <sodipodi:namedview
     pagecolor="#ffffff"
     bordercolor="#666666"
     borderopacity="1"
     objecttolerance="10"
     gridtolerance="10"
     guidetolerance="10"
     inkscape:pageopacity="0"
     inkscape:pageshadow="2"
     inkscape:window-width="1920"
     inkscape:window-height="1002"
     id="namedview6"
     showgrid="false"
     inkscape:zoom="4.6266235"
     inkscape:cx="30.799999"
     inkscape:cy="18"
     inkscape:window-x="1280"
     inkscape:window-y="25"
     inkscape:window-maximized="1"
     inkscape:current-layer="svg2" />
  <path
     fill="#F0152B"
     d="M48.3 10c-.1.6-.1 1.2-.2 1.9l-.3 2.8c-.1 1.4-.3 2.8-.4 4.1-.2 1.6-.4 3.3-.5 4.9-.1.8-.1 1.6-.3 2.4-.3 1.4-.9 2.7-2 3.7-.9.9-1.9 1.4-3.1 1.8-.9.3-1.8.4-2.7.3-1.8-.1-3.2-.9-4.2-2.4-.5-.7-.8-1.5-1-2.3-.4-1.6-.8-3.3-1.1-4.9l-1.1-4.9-1.2-5.4-.4-1.8c0-.1 0-.1-.1-.2-.1-.2-.2-.3-.5-.3-.2 0-.3.1-.4.4l-.1.7-.4 4.5c-.1 1.3-.2 2.6-.4 3.9l-.5 4.8c-.1 1.2-.2 2.4-.4 3.6-.1 1.1-.4 2.2-.9 3.3-.7 1.5-1.8 2.6-3.3 3.5-1.4.9-3 1.4-4.7 1.6-1 .1-1.9.2-2.9.1-1.8-.2-3.4-.7-4.8-1.8-1-.7-1.7-1.7-2.2-2.8-.4-1-.8-2-1.1-3-.2-.8-.5-1.6-.8-2.5-.1-1-.4-2-.7-3l-.8-2.6c-.3-1-.6-2.1-1-3.1-.3-1-.6-2.1-1-3.1l-1.1-3.6c-.3-1-.7-2-1-3.1C.6 6.6.3 5.8.1 4.9 0 4.3 0 3.6.2 3c.3-.8.8-1.5 1.5-1.9 1.4-1 3-1.3 4.8-1 1.5.2 2.8.8 3.9 1.8 1 .8 1.6 1.8 1.9 3l.7 2.7c.3 1.3.7 2.6 1 3.8l1 3.9 1.2 4.8c.3 1.1.6 2.3.8 3.4l.8 3.4c.1.3.2.7.2 1 .1.3.3.5.6.4.3 0 .4-.2.4-.4l.1-1.2.3-3.4.4-4.1.5-5.2c.1-1.3.2-2.7.4-4 .1-1 .2-2.1.5-3s.7-1.7 1.3-2.4c.8-1 1.9-1.7 3.1-2 2.4-.6 4.6-.4 6.8.7 1.5.8 2.6 2 3.4 3.5.5 1 .8 2 1 3.1.5 2.4 1 4.8 1.4 7.2.5 2.6 1 5.2 1.5 7.9 0 .2.1.4.1.5.1.2.2.3.4.3.1 0 .2-.1.2-.3 0-.2.1-.4.1-.7l.3-3.8.3-3.9.3-3.1.4-3.7c.1-1.2.2-2.4.3-3.5 0-.5.1-.9.3-1.3.5-1.4 1.9-2 3.1-1.9.6.1 1.1.1 1.7.1l1.8.1 2.2.2c.8.1 1.6.1 2.3.2.5 0 1 .1 1.5.2 2.8.6 4.7 2.2 5.7 4.8.3.8.5 1.6.6 2.5.1 1 .1 1.9.1 2.9-.1 1.3-.3 2.5-.7 3.7-.8 2.2-2.4 3.6-4.6 4.3-.6.2-1.1.3-1.7.3l-2.7.3-.7.1c-.5.1-.9-.1-1.2-.5-.3-.3-.5-.7-.6-1.2-.2-1-.2-1.9.3-2.8l.4-.7c.3-.4.7-.6 1.2-.6l2.2-.1 1.3-.1c2.2-.4 2.7-6.7-.3-6.9h-1.2l-4.8-.1c.2-.3.1-.3 0-.3z"
     id="path4"
     style="opacity:0.35" />
</svg>
